<svg width="9" height="9" viewBox="0 0 9 9" fill="none" xmlns="http://www.w3.org/2000/svg">
<path fill-rule="evenodd" clip-rule="evenodd" d="M0.62118 3.91547C2.95334 2.89938 4.50848 2.22952 5.2866 1.90587C7.50829 0.981797 7.96993 0.821275 8.27083 0.815974C8.33701 0.814809 8.48498 0.83121 8.58083 0.908985C8.66176 0.974657 8.68403 1.06337 8.69469 1.12564C8.70534 1.1879 8.71861 1.32974 8.70806 1.44057C8.58767 2.70556 8.06673 5.77535 7.8017 7.19216C7.68956 7.79167 7.46875 7.99268 7.25498 8.01235C6.7904 8.0551 6.43762 7.70533 5.98766 7.41037C5.28356 6.94882 4.88578 6.6615 4.20233 6.21112C3.41248 5.69062 3.9245 5.40454 4.37464 4.93701C4.49244 4.81466 6.53937 2.95282 6.57898 2.78392C6.58394 2.7628 6.58854 2.68406 6.54176 2.64248C6.49498 2.60091 6.42595 2.61513 6.37612 2.62643C6.30551 2.64246 5.18069 3.38592 3.00168 4.85682C2.6824 5.07606 2.39321 5.18288 2.13411 5.17728C1.84847 5.17111 1.29901 5.01577 0.890543 4.883C0.389543 4.72014 -0.00864248 4.63404 0.0260305 4.35746C0.0440904 4.2134 0.242474 4.06607 0.62118 3.91547Z" fill="white"/>
</svg>
