<svg width="12" height="9" viewBox="0 0 12 9" fill="none" xmlns="http://www.w3.org/2000/svg">
<path d="M8.74327 0.000963676H0V9.72059H2.43355V6.55845H7.09663L9.22415 9.72059H11.9492L9.60304 6.54389C10.3316 6.42725 10.8562 6.15036 11.1768 5.71322C11.4974 5.27606 11.6577 4.5766 11.6577 3.64399V2.91538C11.6687 2.46793 11.6147 2.02126 11.4974 1.58932C11.395 1.25585 11.2152 0.951273 10.9728 0.700423C10.7158 0.455375 10.407 0.271126 10.0693 0.161251C9.637 0.0459301 9.19061 -0.00802706 8.74327 0.000963676ZM8.34982 4.41632H2.43355V2.14306H8.34982C8.68499 2.14306 8.91813 2.20135 9.03472 2.30335C9.1513 2.40536 9.22415 2.5948 9.22415 2.87167V3.6877C9.22415 3.97915 9.15129 4.16858 9.03472 4.27059C8.91814 4.37259 8.68499 4.41632 8.34982 4.41632Z" fill="#F8F8FA"/>
</svg>
