<svg width="24" height="23" viewBox="0 0 24 23" fill="none" xmlns="http://www.w3.org/2000/svg">
<path d="M11.9998 4.62207L10.9243 3.51657C8.39984 0.921573 3.77084 1.81707 2.09984 5.07957C1.31534 6.61407 1.13834 8.82957 2.57084 11.6571C3.95084 14.3796 6.82184 17.6406 11.9998 21.1926C17.1778 17.6406 20.0473 14.3796 21.4288 11.6571C22.8613 8.82807 22.6858 6.61407 21.8998 5.07957C20.2288 1.81707 15.5998 0.920073 13.0753 3.51507L11.9998 4.62207ZM11.9998 23.0001C-10.9997 7.80207 4.91834 -4.05993 11.7358 2.21457C11.8258 2.29707 11.9143 2.38257 11.9998 2.47107C12.0845 2.38265 12.1725 2.29759 12.2638 2.21607C19.0798 -4.06293 34.9993 7.80057 11.9998 23.0001Z" fill="#A7A7A7"/>
</svg>
