<svg width="24" height="24" viewBox="0 0 24 24" fill="none" xmlns="http://www.w3.org/2000/svg">
<path d="M11.8924 3.30438C12.1367 2.89854 12.725 2.89854 12.9693 3.30438L15.7411 7.91015C15.8288 8.05595 15.9719 8.15993 16.1377 8.19833L21.3746 9.4112C21.8361 9.51807 22.0179 10.0777 21.7074 10.4354L18.1836 14.4948C18.072 14.6233 18.0173 14.7915 18.032 14.961L18.4968 20.3164C18.5378 20.7883 18.0618 21.1341 17.6256 20.9494L12.676 18.8524C12.5193 18.7861 12.3424 18.7861 12.1857 18.8524L7.23608 20.9494C6.79994 21.1341 6.32393 20.7883 6.36488 20.3164L6.82965 14.961C6.84437 14.7915 6.7897 14.6233 6.67815 14.4948L3.15434 10.4354C2.84383 10.0777 3.02565 9.51807 3.48711 9.4112L8.72398 8.19833C8.88976 8.15993 9.03288 8.05595 9.12063 7.91015L11.8924 3.30438Z" fill="#E5EBF2"/>
</svg>
