<svg width="16" height="16" viewBox="0 0 16 16" fill="none" xmlns="http://www.w3.org/2000/svg">
<mask id="path-1-inside-1_3977_23217" fill="white">
<path d="M7.17188 14.6953C7.11979 14.8932 7.08073 15.0938 7.05469 15.2969C7.02865 15.5 7.01042 15.7083 7 15.9219C6.33333 15.8438 5.69792 15.6875 5.09375 15.4531C4.48958 15.2188 3.92969 14.9193 3.41406 14.5547C2.89844 14.1901 2.42969 13.7682 2.00781 13.2891C1.58594 12.8099 1.22656 12.2891 0.929688 11.7266C0.632812 11.1641 0.403646 10.5703 0.242188 9.94531C0.0807292 9.32031 0 8.67188 0 8C0 7.26562 0.09375 6.55729 0.28125 5.875C0.46875 5.19271 0.736979 4.55469 1.08594 3.96094C1.4349 3.36719 1.85156 2.82812 2.33594 2.34375C2.82031 1.85938 3.36198 1.44271 3.96094 1.09375C4.5599 0.744792 5.19531 0.476562 5.86719 0.289062C6.53906 0.101562 7.25 0.00520833 8 0C8.73438 0 9.4401 0.09375 10.1172 0.28125C10.7943 0.46875 11.4323 0.739583 12.0312 1.09375C12.6302 1.44792 13.1693 1.86458 13.6484 2.34375C14.1276 2.82292 14.5469 3.36458 14.9062 3.96875C15.2656 4.57292 15.5339 5.20833 15.7109 5.875C15.888 6.54167 15.9844 7.25 16 8H15.4453C15.3724 7.88021 15.2969 7.76302 15.2188 7.64844C15.1406 7.53385 15.0495 7.42448 14.9453 7.32031C14.9141 6.86719 14.8333 6.42708 14.7031 6H5.13281C5.09115 6.33333 5.0599 6.66406 5.03906 6.99219C5.01823 7.32031 5.00521 7.65625 5 8C5 8.33854 5.01042 8.67188 5.03125 9C5.05208 9.32812 5.08594 9.66146 5.13281 10H8C8 10.1667 8.01302 10.3333 8.03906 10.5C8.0651 10.6667 8.09896 10.8333 8.14062 11H5.30469C5.36719 11.2969 5.45052 11.6224 5.55469 11.9766C5.65885 12.3307 5.78906 12.6771 5.94531 13.0156C6.10156 13.3542 6.28125 13.6719 6.48438 13.9688C6.6875 14.2656 6.91667 14.5078 7.17188 14.6953ZM14.3203 5C14.1172 4.57812 13.8776 4.18229 13.6016 3.8125C13.3255 3.44271 13.013 3.10417 12.6641 2.79688C12.3151 2.48958 11.9453 2.21615 11.5547 1.97656C11.1641 1.73698 10.7422 1.54167 10.2891 1.39062C10.4766 1.65104 10.6432 1.92708 10.7891 2.21875C10.9349 2.51042 11.0677 2.8099 11.1875 3.11719C11.3073 3.42448 11.4089 3.73698 11.4922 4.05469C11.5755 4.3724 11.6484 4.6875 11.7109 5H14.3203ZM8 1C7.73958 1 7.5 1.07031 7.28125 1.21094C7.0625 1.35156 6.85938 1.53646 6.67188 1.76562C6.48438 1.99479 6.31771 2.2526 6.17188 2.53906C6.02604 2.82552 5.89323 3.11979 5.77344 3.42188C5.65365 3.72396 5.55729 4.01042 5.48438 4.28125C5.41146 4.55208 5.35156 4.79167 5.30469 5H10.6953C10.6536 4.79688 10.5938 4.55729 10.5156 4.28125C10.4375 4.00521 10.3411 3.71875 10.2266 3.42188C10.112 3.125 9.98177 2.83333 9.83594 2.54688C9.6901 2.26042 9.52344 2 9.33594 1.76562C9.14844 1.53125 8.94271 1.34635 8.71875 1.21094C8.49479 1.07552 8.25521 1.00521 8 1ZM5.71875 1.38281C5.27604 1.53385 4.85417 1.72656 4.45312 1.96094C4.05208 2.19531 3.67969 2.46875 3.33594 2.78125C2.99219 3.09375 2.67969 3.4349 2.39844 3.80469C2.11719 4.17448 1.8776 4.57292 1.67969 5H4.28906C4.34635 4.71354 4.41667 4.40885 4.5 4.08594C4.58333 3.76302 4.6875 3.4401 4.8125 3.11719C4.9375 2.79427 5.07292 2.48438 5.21875 2.1875C5.36458 1.89062 5.53125 1.6224 5.71875 1.38281ZM1 8C1 8.69271 1.09635 9.35938 1.28906 10H4.125C4.08333 9.66667 4.05208 9.33594 4.03125 9.00781C4.01042 8.67969 4 8.34375 4 8C4 7.66146 4.01042 7.32812 4.03125 7C4.05208 6.67188 4.08333 6.33854 4.125 6H1.28906C1.09635 6.64062 1 7.30729 1 8ZM1.66406 11C1.86719 11.4219 2.10677 11.8177 2.38281 12.1875C2.65885 12.5573 2.97135 12.8984 3.32031 13.2109C3.66927 13.5234 4.04427 13.7943 4.44531 14.0234C4.84635 14.2526 5.26823 14.4479 5.71094 14.6094C5.52344 14.349 5.35677 14.0729 5.21094 13.7812C5.0651 13.4896 4.93229 13.1901 4.8125 12.8828C4.69271 12.5755 4.59115 12.263 4.50781 11.9453C4.42448 11.6276 4.34896 11.3125 4.28125 11H1.66406ZM13.7656 12.4141C14.1042 12.5859 14.4115 12.7969 14.6875 13.0469C14.9635 13.2969 15.1979 13.5781 15.3906 13.8906C15.5833 14.2031 15.7344 14.5365 15.8438 14.8906C15.9531 15.2448 16.0052 15.6146 16 16H15C15 15.5885 14.9219 15.2005 14.7656 14.8359C14.6094 14.4714 14.3958 14.1536 14.125 13.8828C13.8542 13.612 13.5339 13.3958 13.1641 13.2344C12.7943 13.0729 12.4062 12.9948 12 13C11.5833 13 11.1953 13.0781 10.8359 13.2344C10.4766 13.3906 10.1589 13.6042 9.88281 13.875C9.60677 14.1458 9.39062 14.4661 9.23438 14.8359C9.07812 15.2057 9 15.5938 9 16H8C8 15.6198 8.05208 15.2526 8.15625 14.8984C8.26042 14.5443 8.40885 14.2083 8.60156 13.8906C8.79427 13.5729 9.02865 13.2917 9.30469 13.0469C9.58073 12.8021 9.88802 12.5911 10.2266 12.4141C9.83594 12.1328 9.53385 11.7812 9.32031 11.3594C9.10677 10.9375 9 10.4844 9 10C9 9.58854 9.07812 9.20052 9.23438 8.83594C9.39062 8.47135 9.60417 8.15365 9.875 7.88281C10.1458 7.61198 10.4635 7.39583 10.8281 7.23438C11.1927 7.07292 11.5833 6.99479 12 7C12.4115 7 12.7995 7.07812 13.1641 7.23438C13.5286 7.39062 13.8464 7.60417 14.1172 7.875C14.388 8.14583 14.6042 8.46615 14.7656 8.83594C14.9271 9.20573 15.0052 9.59375 15 10C15 10.4792 14.8932 10.9297 14.6797 11.3516C14.4661 11.7734 14.1615 12.1276 13.7656 12.4141ZM12 12C12.276 12 12.5339 11.9479 12.7734 11.8438C13.013 11.7396 13.2266 11.5964 13.4141 11.4141C13.6016 11.2318 13.7448 11.0208 13.8438 10.7812C13.9427 10.5417 13.9948 10.2812 14 10C14 9.72396 13.9479 9.46615 13.8438 9.22656C13.7396 8.98698 13.5964 8.77344 13.4141 8.58594C13.2318 8.39844 13.0208 8.25521 12.7812 8.15625C12.5417 8.05729 12.2812 8.00521 12 8C11.724 8 11.4661 8.05208 11.2266 8.15625C10.987 8.26042 10.7734 8.40365 10.5859 8.58594C10.3984 8.76823 10.2552 8.97917 10.1562 9.21875C10.0573 9.45833 10.0052 9.71875 10 10C10 10.276 10.0521 10.5339 10.1562 10.7734C10.2604 11.013 10.4036 11.2266 10.5859 11.4141C10.7682 11.6016 10.9792 11.7448 11.2188 11.8438C11.4583 11.9427 11.7188 11.9948 12 12Z"/>
</mask>
<path d="M7.17188 14.6953C7.11979 14.8932 7.08073 15.0938 7.05469 15.2969C7.02865 15.5 7.01042 15.7083 7 15.9219C6.33333 15.8438 5.69792 15.6875 5.09375 15.4531C4.48958 15.2188 3.92969 14.9193 3.41406 14.5547C2.89844 14.1901 2.42969 13.7682 2.00781 13.2891C1.58594 12.8099 1.22656 12.2891 0.929688 11.7266C0.632812 11.1641 0.403646 10.5703 0.242188 9.94531C0.0807292 9.32031 0 8.67188 0 8C0 7.26562 0.09375 6.55729 0.28125 5.875C0.46875 5.19271 0.736979 4.55469 1.08594 3.96094C1.4349 3.36719 1.85156 2.82812 2.33594 2.34375C2.82031 1.85938 3.36198 1.44271 3.96094 1.09375C4.5599 0.744792 5.19531 0.476562 5.86719 0.289062C6.53906 0.101562 7.25 0.00520833 8 0C8.73438 0 9.4401 0.09375 10.1172 0.28125C10.7943 0.46875 11.4323 0.739583 12.0312 1.09375C12.6302 1.44792 13.1693 1.86458 13.6484 2.34375C14.1276 2.82292 14.5469 3.36458 14.9062 3.96875C15.2656 4.57292 15.5339 5.20833 15.7109 5.875C15.888 6.54167 15.9844 7.25 16 8H15.4453C15.3724 7.88021 15.2969 7.76302 15.2188 7.64844C15.1406 7.53385 15.0495 7.42448 14.9453 7.32031C14.9141 6.86719 14.8333 6.42708 14.7031 6H5.13281C5.09115 6.33333 5.0599 6.66406 5.03906 6.99219C5.01823 7.32031 5.00521 7.65625 5 8C5 8.33854 5.01042 8.67188 5.03125 9C5.05208 9.32812 5.08594 9.66146 5.13281 10H8C8 10.1667 8.01302 10.3333 8.03906 10.5C8.0651 10.6667 8.09896 10.8333 8.14062 11H5.30469C5.36719 11.2969 5.45052 11.6224 5.55469 11.9766C5.65885 12.3307 5.78906 12.6771 5.94531 13.0156C6.10156 13.3542 6.28125 13.6719 6.48438 13.9688C6.6875 14.2656 6.91667 14.5078 7.17188 14.6953ZM14.3203 5C14.1172 4.57812 13.8776 4.18229 13.6016 3.8125C13.3255 3.44271 13.013 3.10417 12.6641 2.79688C12.3151 2.48958 11.9453 2.21615 11.5547 1.97656C11.1641 1.73698 10.7422 1.54167 10.2891 1.39062C10.4766 1.65104 10.6432 1.92708 10.7891 2.21875C10.9349 2.51042 11.0677 2.8099 11.1875 3.11719C11.3073 3.42448 11.4089 3.73698 11.4922 4.05469C11.5755 4.3724 11.6484 4.6875 11.7109 5H14.3203ZM8 1C7.73958 1 7.5 1.07031 7.28125 1.21094C7.0625 1.35156 6.85938 1.53646 6.67188 1.76562C6.48438 1.99479 6.31771 2.2526 6.17188 2.53906C6.02604 2.82552 5.89323 3.11979 5.77344 3.42188C5.65365 3.72396 5.55729 4.01042 5.48438 4.28125C5.41146 4.55208 5.35156 4.79167 5.30469 5H10.6953C10.6536 4.79688 10.5938 4.55729 10.5156 4.28125C10.4375 4.00521 10.3411 3.71875 10.2266 3.42188C10.112 3.125 9.98177 2.83333 9.83594 2.54688C9.6901 2.26042 9.52344 2 9.33594 1.76562C9.14844 1.53125 8.94271 1.34635 8.71875 1.21094C8.49479 1.07552 8.25521 1.00521 8 1ZM5.71875 1.38281C5.27604 1.53385 4.85417 1.72656 4.45312 1.96094C4.05208 2.19531 3.67969 2.46875 3.33594 2.78125C2.99219 3.09375 2.67969 3.4349 2.39844 3.80469C2.11719 4.17448 1.8776 4.57292 1.67969 5H4.28906C4.34635 4.71354 4.41667 4.40885 4.5 4.08594C4.58333 3.76302 4.6875 3.4401 4.8125 3.11719C4.9375 2.79427 5.07292 2.48438 5.21875 2.1875C5.36458 1.89062 5.53125 1.6224 5.71875 1.38281ZM1 8C1 8.69271 1.09635 9.35938 1.28906 10H4.125C4.08333 9.66667 4.05208 9.33594 4.03125 9.00781C4.01042 8.67969 4 8.34375 4 8C4 7.66146 4.01042 7.32812 4.03125 7C4.05208 6.67188 4.08333 6.33854 4.125 6H1.28906C1.09635 6.64062 1 7.30729 1 8ZM1.66406 11C1.86719 11.4219 2.10677 11.8177 2.38281 12.1875C2.65885 12.5573 2.97135 12.8984 3.32031 13.2109C3.66927 13.5234 4.04427 13.7943 4.44531 14.0234C4.84635 14.2526 5.26823 14.4479 5.71094 14.6094C5.52344 14.349 5.35677 14.0729 5.21094 13.7812C5.0651 13.4896 4.93229 13.1901 4.8125 12.8828C4.69271 12.5755 4.59115 12.263 4.50781 11.9453C4.42448 11.6276 4.34896 11.3125 4.28125 11H1.66406ZM13.7656 12.4141C14.1042 12.5859 14.4115 12.7969 14.6875 13.0469C14.9635 13.2969 15.1979 13.5781 15.3906 13.8906C15.5833 14.2031 15.7344 14.5365 15.8438 14.8906C15.9531 15.2448 16.0052 15.6146 16 16H15C15 15.5885 14.9219 15.2005 14.7656 14.8359C14.6094 14.4714 14.3958 14.1536 14.125 13.8828C13.8542 13.612 13.5339 13.3958 13.1641 13.2344C12.7943 13.0729 12.4062 12.9948 12 13C11.5833 13 11.1953 13.0781 10.8359 13.2344C10.4766 13.3906 10.1589 13.6042 9.88281 13.875C9.60677 14.1458 9.39062 14.4661 9.23438 14.8359C9.07812 15.2057 9 15.5938 9 16H8C8 15.6198 8.05208 15.2526 8.15625 14.8984C8.26042 14.5443 8.40885 14.2083 8.60156 13.8906C8.79427 13.5729 9.02865 13.2917 9.30469 13.0469C9.58073 12.8021 9.88802 12.5911 10.2266 12.4141C9.83594 12.1328 9.53385 11.7812 9.32031 11.3594C9.10677 10.9375 9 10.4844 9 10C9 9.58854 9.07812 9.20052 9.23438 8.83594C9.39062 8.47135 9.60417 8.15365 9.875 7.88281C10.1458 7.61198 10.4635 7.39583 10.8281 7.23438C11.1927 7.07292 11.5833 6.99479 12 7C12.4115 7 12.7995 7.07812 13.1641 7.23438C13.5286 7.39062 13.8464 7.60417 14.1172 7.875C14.388 8.14583 14.6042 8.46615 14.7656 8.83594C14.9271 9.20573 15.0052 9.59375 15 10C15 10.4792 14.8932 10.9297 14.6797 11.3516C14.4661 11.7734 14.1615 12.1276 13.7656 12.4141ZM12 12C12.276 12 12.5339 11.9479 12.7734 11.8438C13.013 11.7396 13.2266 11.5964 13.4141 11.4141C13.6016 11.2318 13.7448 11.0208 13.8438 10.7812C13.9427 10.5417 13.9948 10.2812 14 10C14 9.72396 13.9479 9.46615 13.8438 9.22656C13.7396 8.98698 13.5964 8.77344 13.4141 8.58594C13.2318 8.39844 13.0208 8.25521 12.7812 8.15625C12.5417 8.05729 12.2812 8.00521 12 8C11.724 8 11.4661 8.05208 11.2266 8.15625C10.987 8.26042 10.7734 8.40365 10.5859 8.58594C10.3984 8.76823 10.2552 8.97917 10.1562 9.21875C10.0573 9.45833 10.0052 9.71875 10 10C10 10.276 10.0521 10.5339 10.1562 10.7734C10.2604 11.013 10.4036 11.2266 10.5859 11.4141C10.7682 11.6016 10.9792 11.7448 11.2188 11.8438C11.4583 11.9427 11.7188 11.9948 12 12Z" fill="#4B4B4B" stroke="#4B4B4B" stroke-width="2" mask="url(#path-1-inside-1_3977_23217)"/>
</svg>
