<svg width="188" height="40" viewBox="0 0 188 40" fill="none" xmlns="http://www.w3.org/2000/svg">
<g clip-path="url(#clip0_1_247)">
<path d="M52.8031 12.9075H64.0807V15.859H56.0631V18.8987H63.1115V21.8502H56.0631V24.978H64.1688V27.8855H52.7591V12.9075H52.8031Z" fill="#282828"/>
<path d="M66.1512 22.1145C66.1512 18.2819 68.6622 16.2115 71.3494 16.2115C73.0674 16.2115 74.1688 17.0044 74.9177 17.9295V12.2907H78.1776V27.8855H74.9177V26.2555C74.1247 27.3128 73.0234 28.1057 71.3494 28.1057C68.7062 28.1057 66.1512 25.9912 66.1512 22.1145ZM74.9617 22.1145C74.9617 20.2203 73.6842 18.9427 72.1864 18.9427C70.6886 18.9427 69.367 20.1762 69.367 22.1586C69.367 24.0529 70.6445 25.3304 72.1864 25.3304C73.7282 25.3304 74.9617 24.0969 74.9617 22.1145Z" fill="#282828"/>
<path d="M81.1292 23.8326V16.4317H84.3891V22.8194C84.3891 24.3612 85.138 25.1542 86.3714 25.1542C87.6049 25.1542 88.3979 24.3612 88.3979 22.8194V16.4317H91.6578V27.8855H88.3538V26.2555C87.6049 27.2247 86.6358 28.1057 85.0058 28.1057C82.5388 28.1057 81.1292 26.4758 81.1292 23.8326Z" fill="#282828"/>
<path d="M94.9617 12.9075H98.0014L105.006 22.1145V12.9075H108.266V27.8855H105.446L98.1776 18.37V27.8855H94.9617V12.9075Z" fill="#282828"/>
<path d="M111.085 22.1586C111.085 18.8987 113.42 16.2115 116.768 16.2115C120.6 16.2115 122.363 19.163 122.363 22.4229C122.363 22.6872 122.363 22.9956 122.319 23.2599H114.345C114.653 24.7137 115.711 25.5066 117.164 25.5066C118.266 25.5066 119.059 25.1542 119.94 24.3172L121.79 25.9471C120.733 27.2687 119.191 28.1057 117.12 28.1057C113.596 28.1498 111.085 25.7269 111.085 22.1586ZM119.147 21.2775C118.971 19.8238 118.089 18.8546 116.724 18.8546C115.358 18.8546 114.521 19.8238 114.257 21.2775H119.147Z" fill="#282828"/>
<path d="M125.358 24.6256V19.207H123.993V16.4317H125.358V13.5242H128.618V16.4317H131.305V19.207H128.618V24.0969C128.618 24.8458 128.926 25.1982 129.675 25.1982C130.292 25.1982 130.821 25.0661 131.261 24.8018V27.4009C130.556 27.7974 129.808 28.0617 128.706 28.0617C126.724 28.0617 125.358 27.2687 125.358 24.6256Z" fill="#282828"/>
<path d="M132.891 16.4317H136.195L138.045 23.3921L140.204 16.3877H143.023L145.226 23.3921L147.12 16.4317H150.336L146.768 27.9736H143.816L141.614 20.9251L139.367 27.9736H136.46L132.891 16.4317Z" fill="#282828"/>
<path d="M151.261 22.1586C151.261 18.8546 153.904 16.2115 157.473 16.2115C161.041 16.2115 163.64 18.8546 163.64 22.1586C163.64 25.4626 160.997 28.1057 157.429 28.1057C153.86 28.1498 151.261 25.5066 151.261 22.1586ZM160.424 22.1586C160.424 20.4846 159.191 18.9868 157.429 18.9868C155.578 18.9868 154.477 20.4405 154.477 22.1586C154.477 23.8326 155.711 25.3304 157.473 25.3304C159.323 25.3304 160.424 23.9207 160.424 22.1586Z" fill="#282828"/>
<path d="M166.107 16.4317H169.367V18.7225C170.028 17.1366 171.085 16.1233 173.023 16.2115V19.6035H172.847C170.689 19.6035 169.367 20.9251 169.367 23.6564V27.8855H166.107V16.4317Z" fill="#282828"/>
<path d="M175.138 12.2907H178.398V20.6167L182.186 16.4317H186.063L181.746 20.9251L186.239 27.8855H182.539L179.543 23.2159L178.398 24.4053V27.8855H175.138V12.2907Z" fill="#282828"/>
<path d="M18.8384 20.0881H14.345V30.9251H18.8384V20.0881Z" fill="#68B968"/>
<path d="M18.8384 8.67841H14.345V19.207H18.8384V8.67841Z" fill="#C9345D"/>
<path d="M27.6049 17.4009H19.7195V21.8943H27.6049V17.4009Z" fill="#4A8ECB"/>
<path d="M28.3979 8.67841H19.7195V13.1718H28.3979V8.67841Z" fill="#8A4996"/>
<path d="M29.0587 26.4317H19.7195V30.9251H29.0587V26.4317Z" fill="#E0AC23"/>
<path d="M21.1292 40C10.1159 40 1.12915 31.0132 1.12915 20C1.12915 8.98678 10.1159 0 21.1292 0C32.1424 0 41.1292 8.98678 41.1292 20C41.1292 31.0132 32.1424 40 21.1292 40ZM21.1292 2.07048C11.2173 2.07048 3.19963 10.0881 3.19963 20C3.19963 29.8678 11.2613 37.9295 21.1292 37.9295C31.041 37.9295 39.0587 29.8678 39.0587 20C39.0587 10.0881 30.997 2.07048 21.1292 2.07048Z" fill="#AFAFAF"/>
</g>
<defs>
<clipPath id="clip0_1_247">
<rect width="187.368" height="40" fill="white"/>
</clipPath>
</defs>
</svg>
