<svg width="41" height="40" viewBox="0 0 41 40" fill="none" xmlns="http://www.w3.org/2000/svg">
<path d="M17.8014 20.0881H13.3168V30.9251H17.8014V20.0881Z" fill="#68B968"/>
<path d="M17.8014 8.67841H13.3168V19.207H17.8014V8.67841Z" fill="#C9345D"/>
<path d="M26.5506 17.4009H18.6807V21.8943H26.5506V17.4009Z" fill="#4A8ECB"/>
<path d="M27.342 8.67841H18.6807V13.1718H27.342V8.67841Z" fill="#8A4996"/>
<path d="M28.0015 26.4317H18.6807V30.9251H28.0015V26.4317Z" fill="#E0AC23"/>
<path d="M20.0876 40C9.09604 40 0.126923 31.0132 0.126923 20C0.126923 8.98678 9.09604 0 20.0876 0C31.0792 0 40.0483 8.98678 40.0483 20C40.0483 31.0132 31.0792 40 20.0876 40ZM20.0876 2.07048C10.1952 2.07048 2.19334 10.0881 2.19334 20C2.19334 29.8678 10.2392 37.9295 20.0876 37.9295C29.98 37.9295 37.9819 29.8678 37.9819 20C37.9819 10.0881 29.936 2.07048 20.0876 2.07048Z" fill="#AFAFAF"/>
</svg>
